<svg width="266" height="250" viewBox="0 0 266 250" version="1.1" xmlns="http://www.w3.org/2000/svg" xmlns:xlink="http://www.w3.org/1999/xlink">
<title>001-student</title>
<desc>Created using Figma</desc>
<g id="Canvas" transform="translate(554 -1122)">
<g id="001-student">
<g id="Vector">
<use xlink:href="#path0_fill" transform="translate(-553.354 1122)" fill="#FFCA4F"/>
</g>
<g id="Vector">
<use xlink:href="#path1_fill" transform="translate(-446.161 1217.53)" fill="#F0B97D"/>
</g>
<g id="Vector">
<use xlink:href="#path2_fill" transform="translate(-528.002 1241.23)" fill="#15BDB1"/>
</g>
<g id="Vector">
<use xlink:href="#path3_fill" transform="translate(-446.132 1241.34)" fill="#F1F1F1"/>
</g>
<g id="Vector">
<use xlink:href="#path4_fill" transform="translate(-450.229 1241.23)" fill="#20D0C2"/>
</g>
<g id="Vector">
<use xlink:href="#path5_fill" transform="translate(-454.026 1155.89)" fill="#FED198"/>
</g>
<g id="Vector">
<use xlink:href="#path6_fill" transform="translate(-452.882 1149.01)" fill="#666666"/>
</g>
<g id="Group">
<g id="Vector">
<use xlink:href="#path7_fill" transform="translate(-441.318 1234.38)" fill="#FFFFFF"/>
</g>
<g id="Vector">
<use xlink:href="#path8_fill" transform="translate(-420.71 1234.38)" fill="#FFFFFF"/>
</g>
</g>
<g id="Vector">
<use xlink:href="#path9_fill" transform="translate(-501.043 1340.68)" fill="#ECF0F1"/>
</g>
<g id="Vector">
<use xlink:href="#path10_fill" transform="translate(-497.644 1343.04)" fill="#377BB9"/>
</g>
<g id="Vector">
<use xlink:href="#path11_fill" transform="translate(-497.078 1342.7)" fill="#FBB429"/>
</g>
<g id="Vector">
<use xlink:href="#path12_fill" transform="translate(-371.015 1340.68)" fill="#ECF0F1"/>
</g>
<g id="Vector">
<use xlink:href="#path13_fill" transform="translate(-367.616 1343.04)" fill="#333333"/>
</g>
<g id="Vector">
<use xlink:href="#path14_fill" transform="translate(-377.519 1342.7)" fill="#FBB429"/>
</g>
<g id="Vector">
<use xlink:href="#path15_fill" transform="translate(-496.99 1271.02)" fill="#FFFFFF"/>
</g>
<g id="Vector">
<use xlink:href="#path16_fill" transform="translate(-496.992 1360.84)" fill="#C8CACC"/>
</g>
<g id="Group">
<g id="Vector">
<use xlink:href="#path17_fill" transform="translate(-474.582 1355.46)" fill="#ECF0F1"/>
</g>
<g id="Vector">
<use xlink:href="#path18_fill" transform="translate(-435.778 1303.32)" fill="#ECF0F1"/>
</g>
</g>
</g>
</g>
<defs>
<path id="path0_fill" d="M 132.646 250C 205.704 250 265.291 193.848 265.291 125C 265.291 56.1523 205.704 0 132.646 0C 59.5874 0 0 56.1523 0 125C 0 193.848 59.5874 250 132.646 250Z"/>
<path id="path1_fill" d="M 13.0754 -5.96046e-07L 17.9921 -5.96046e-07L 32.9075 -5.96046e-07L 37.8247 -5.96046e-07L 39.8294 19.6567L 43.3901 22.3496L 50.9007 26.8545L 25.4498 83.5059L -1.13851e-06 26.8545L 7.51053 22.3496L 11.0728 19.6582L 13.0754 -5.96046e-07Z"/>
<path id="path2_fill" d="M 87.103 1.72853e-06L 50.8193 10.9126C 50.8193 10.9126 47.2892 12.6445 45.427 17.6699C 34.6189 28.5825 1.58126e-07 64.2461 1.58126e-07 73.3003C 1.58126e-07 84.0298 29.5489 109.873 29.5489 109.873L 43.5741 109.873L 43.5741 119.133L 107.291 119.133L 171.009 119.133L 171.009 109.873L 185.035 109.873C 185.035 109.873 214.584 84.0298 214.584 73.3003C 214.584 64.2437 179.96 28.5776 169.155 17.6665C 167.29 12.6445 163.763 10.9131 163.763 10.9131L 127.727 0.149416L 124.67 8.6001L 107.291 7.80518L 90.1653 8.58887L 87.103 1.72853e-06ZM 43.5741 62.5195L 48.0711 79.4238L 47.2757 97.2822L 43.5741 93.29L 30.6603 75.9067L 43.5741 62.5195ZM 171.009 93.291L 167.31 97.0674L 166.513 76.3223L 171.009 62.5176L 183.925 75.9072L 171.009 93.291Z"/>
<path id="path3_fill" d="M 4.88146 2.86102e-06L -1.26501e-06 1.46728L 25.4208 59.7021L 51.0675 1.59863L 45.857 0.0429704L 33.0951 7.4751L 17.7947 7.4751L 4.88146 2.86102e-06Z"/>
<path id="path4_fill" d="M 9.33027 1.72853e-06L 1.50314 2.35449L -6.32503e-08 21.0679C -6.32503e-08 21.0679 0.414002 22.606 1.65652 22.4678L 8.71989 24.9697C 8.71989 24.9697 9.18208 25.4062 8.7686 25.9565L 2.72338 29.8599L 23.6088 66.9526C 25.5643 67.0591 27.5348 67.1128 29.5173 67.1128C 31.5018 67.1128 33.4712 67.0591 35.4262 66.9526L 56.3117 29.8599L 50.267 25.9565C 49.8535 25.4062 50.3152 24.9697 50.3152 24.9697L 57.378 22.4678C 58.6216 22.606 59.0356 21.0679 59.0356 21.0679L 57.536 2.41504L 49.9519 0.148924L 29.5162 56.625L 9.33027 1.72853e-06Z"/>
<path id="path5_fill" d="M 62.1392 21.6729C 62.1392 23.499 62.847 25.2881 62.7942 27.0405C 69.4264 25.8804 66.2243 44.4443 62.4719 46.9971C 62.1739 47.1997 61.4402 46.7471 60.8216 46.375C 59.52 53.2036 48.4114 71.4478 41.3486 79.1269C 39.3869 81.2598 27.3928 81.2236 25.4503 79.2085C 18.2159 71.7036 7.12189 53.2427 5.81357 46.375C 5.19335 46.7476 4.46017 47.1997 4.16276 46.9971C 0.410337 44.4443 -2.79233 25.8804 3.83995 27.0405C 3.78762 25.2881 4.49385 23.499 4.49385 21.6729C 4.86121 7.25781 18.7211 0.0610346 33.3173 -5.96046e-07C 47.9114 0.0610346 61.7729 7.25781 62.1392 21.6729Z"/>
<path id="path6_fill" d="M 52.108 10.0724C 54.1987 9.84335 61.7543 12.024 62.6606 19.5567C 63.5684 27.0899 63.1337 34.0299 63.1337 34.0299C 63.1337 34.0299 58.7082 35.0836 58.1506 39.3585C 57.5941 43.6344 57.9911 43.6344 57.9911 43.6344L 56.3884 43.2955L 55.2464 35.9649C 48.6245 32.0553 55.2962 26.2633 48.6727 24.9068C 30.7852 36.921 15.003 34.8653 7.88575 29.213C 7.88575 29.213 9.54745 35.1246 8.26607 37.2315C 6.98521 39.3399 7.75 42.6612 7.75 42.6612L 6.08624 42.585C 6.08624 42.585 6.38727 33.88 2.69392 33.9181C -11.338 12.085 33.0869 -15.0365 52.108 10.0724Z"/>
<path id="path7_fill" d="M 6.05713 7.15256e-07C 6.57683 0.0346687 3.16252e-06 6.97216 3.16252e-06 6.97216L 5.59806 24.9033L 20.6082 14.4277C 12.3516 10.6392 7.42452 5.73145 6.05713 7.15256e-07Z"/>
<path id="path8_fill" d="M 14.5522 7.15256e-07C 14.0335 0.0346687 20.6082 6.97216 20.6082 6.97216L 15.0092 24.9033L 5.69253e-07 14.4277C 8.25667 10.6392 13.1842 5.73145 14.5522 7.15256e-07Z"/>
<path id="path9_fill" d="M 15.3211 2.98023e-06C 23.7834 2.98023e-06 30.6422 4.0127 30.6422 8.96192C 30.6422 13.9106 23.7834 17.9238 15.3211 17.9238C 6.85871 17.9238 -1.89751e-07 13.9102 -1.89751e-07 8.96192C -1.89751e-07 4.0127 6.85871 2.98023e-06 15.3211 2.98023e-06ZM 15.3211 2.36719C 8.73543 2.36719 3.39852 5.32227 3.39852 8.96192C 3.39852 12.6035 8.73543 15.5586 15.3211 15.5586C 21.9067 15.5586 27.2447 12.6035 27.2447 8.96192C 27.2441 5.32227 21.9067 2.36719 15.3211 2.36719Z"/>
<path id="path10_fill" d="M 11.9226 13.1904C 18.4895 13.1904 23.8461 10.228 23.8461 6.5957C 23.8461 2.96289 18.4895 -9.53674e-07 11.9226 -9.53674e-07C 5.35556 -9.53674e-07 -1.13254e-06 2.96289 -1.13254e-06 6.5957C -0.000519279 10.2275 5.35556 13.1904 11.9226 13.1904Z"/>
<path id="path11_fill" d="M 6.5043 10.707L 6.5043 17.9292C 6.5043 18.8247 5.72811 19.5576 4.77576 19.5576L 1.72854 19.5576C 0.777737 19.5576 3.16252e-08 18.8247 3.16252e-08 17.9292L 3.16252e-08 6.75293C 3.16252e-08 6.58203 0.0284972 6.41747 0.08083 6.2622L 0.08083 3.80177C 0.08083 1.71046 1.89642 2.14577e-06 4.11616 2.14577e-06L 29.0649 2.14577e-06C 31.2841 2.14577e-06 33.0982 1.70997 33.0982 3.80177L 33.0982 6.25879C 33.1526 6.41455 33.1806 6.58057 33.1806 6.75342L 33.1806 17.9297C 33.1806 18.8252 32.4039 19.5581 31.452 19.5581L 28.4053 19.5581C 27.454 19.5581 26.6768 18.8252 26.6768 17.9297L 26.6768 10.7075L 24.2881 10.7075L 24.2881 17.9297C 24.2881 18.8252 23.5119 19.5581 22.5596 19.5581L 19.5124 19.5581C 18.561 19.5581 17.7838 18.8252 17.7838 17.9297L 17.7838 10.7075L 15.3962 10.7075L 15.3962 17.9297C 15.3962 18.8252 14.6185 19.5581 13.6677 19.5581L 10.6205 19.5581C 9.6681 19.5581 8.89192 18.8252 8.89192 17.9297L 8.89192 10.7075L 6.5043 10.707Z"/>
<path id="path12_fill" d="M 15.3206 2.98023e-06C 6.85975 2.98023e-06 6.70453e-06 4.0127 6.70453e-06 8.96192C 6.70453e-06 13.9106 6.85923 17.9238 15.3206 17.9238C 23.7829 17.9238 30.6427 13.9102 30.6427 8.96192C 30.6427 4.0127 23.7824 2.98023e-06 15.3206 2.98023e-06ZM 15.3206 2.36719C 21.9062 2.36719 27.2441 5.32227 27.2441 8.96192C 27.2441 12.6035 21.9067 15.5586 15.3206 15.5586C 8.73492 15.5586 3.39853 12.6035 3.39853 8.96192C 3.39801 5.32227 8.7344 2.36719 15.3206 2.36719Z"/>
<path id="path13_fill" d="M 11.9226 13.1904C 18.489 13.1904 23.8462 10.228 23.8462 6.5957C 23.8462 2.96289 18.489 -9.53674e-07 11.9226 -9.53674e-07C 5.35556 -9.53674e-07 5.47712e-06 2.96289 5.47712e-06 6.5957C -0.00051267 10.2275 5.35556 13.1904 11.9226 13.1904Z"/>
<path id="path14_fill" d="M 26.6768 10.707L 26.6768 17.9292C 26.6768 18.8247 27.453 19.5576 28.4053 19.5576L 31.4525 19.5576C 32.4044 19.5576 33.1806 18.8247 33.1806 17.9292L 33.1806 6.75293C 33.1806 6.58203 33.1521 6.41747 33.0997 6.2622L 33.0997 3.80177C 33.0997 1.71046 31.2852 2.14577e-06 29.0654 2.14577e-06L 4.11616 2.14577e-06C 1.89694 2.14577e-06 0.0818674 1.70997 0.0818674 3.80177L 0.0818674 6.25879C 0.027462 6.41455 5.69253e-06 6.58057 5.69253e-06 6.75342L 5.69253e-06 17.9297C 5.69253e-06 18.8252 0.776185 19.5581 1.72802 19.5581L 4.77575 19.5581C 5.72603 19.5581 6.50378 18.8252 6.50378 17.9297L 6.50378 10.7075L 8.89191 10.7075L 8.89191 17.9297C 8.89191 18.8252 9.66965 19.5581 10.6204 19.5581L 13.6677 19.5581C 14.62 19.5581 15.3962 18.8252 15.3962 17.9297L 15.3962 10.7075L 17.7849 10.7075L 17.7849 17.9297C 17.7849 18.8252 18.5616 19.5581 19.5134 19.5581L 22.5606 19.5581C 23.5114 19.5581 24.2876 18.8252 24.2876 17.9297L 24.2876 10.7075L 26.6768 10.707Z"/>
<path id="path15_fill" d="M 7.93697 2.5034e-06L 144.626 2.5034e-06C 148.992 2.5034e-06 152.563 3.36573 152.563 7.47803L 152.563 78.6704C 152.563 82.7832 148.992 86.1499 144.626 86.1499L 7.93697 86.1499C 3.57158 86.1499 -6.32503e-07 82.7832 -6.32503e-07 78.6704L -6.32503e-07 7.47803C -6.32503e-07 3.36573 3.57158 2.5034e-06 7.93697 2.5034e-06Z"/>
<path id="path16_fill" d="M 3.01251 1.54972e-06L 149.553 1.54972e-06C 151.209 1.54972e-06 152.564 1.27734 152.564 2.84033L 152.564 8.31397C 152.564 9.87745 151.209 11.1533 149.553 11.1533L 3.01251 11.1533C 1.35547 11.1533 -6.32503e-08 9.87745 -6.32503e-08 8.31397L -6.32503e-08 2.84033C -6.32503e-08 1.27734 1.35547 1.54972e-06 3.01251 1.54972e-06Z"/>
<path id="path17_fill" d="M -3.73177e-06 3.45707e-06L 12.9526 3.45707e-06L 12.9526 8.32227L -3.73177e-06 8.32227L -3.73177e-06 3.45707e-06ZM 94.796 3.45707e-06L 107.749 3.45707e-06L 107.749 8.32227L 94.796 8.32227L 94.796 3.45707e-06Z"/>
<path id="path18_fill" d="M 0.698983 1.66893e-06L 29.4385 1.66893e-06C 29.8245 1.66893e-06 30.1385 0.295892 30.1385 0.659661L 30.1385 6.79052C 30.1385 7.1538 29.8245 7.44921 29.4385 7.44921L 0.698983 7.44921C 0.313482 7.44921 3.85827e-06 7.1538 3.85827e-06 6.79052L 3.85827e-06 0.659661C 0.000522005 0.295892 0.313482 1.66893e-06 0.698983 1.66893e-06Z"/>
</defs>
</svg>
