<svg width="250" height="200" viewBox="0 0 250 200" version="1.1" xmlns="http://www.w3.org/2000/svg" xmlns:xlink="http://www.w3.org/1999/xlink">
<title>image2</title>
<desc>Created using Figma</desc>
<g id="Canvas" transform="translate(112 -249)">
<g id="image2">
<g id="Mask">
<use xlink:href="#path0_fill" transform="translate(-112 249)" fill="url(#paint0_linear)"/>
</g>
<mask id="mask0_outline" mask-type="alpha">
<g id="Mask">
<use xlink:href="#path0_fill" transform="translate(-112 249)" fill="#FFFFFF"/>
</g>
</mask>
<g id="003-distribution" mask="url(#mask0_outline)">
<g id="Group">
<g id="Vector">
<use xlink:href="#path1_fill" transform="translate(44.1667 412.167)" fill="#79ACC6"/>
</g>
<g id="Vector">
<use xlink:href="#path1_fill" transform="translate(72.5 406.5)" fill="#79ACC6"/>
</g>
<g id="Vector">
<use xlink:href="#path2_fill" transform="translate(10.1667 423.5)" fill="#79ACC6"/>
</g>
<g id="Vector">
<use xlink:href="#path1_fill" transform="translate(15.8333 406.5)" fill="#79ACC6"/>
</g>
</g>
<g id="Vector">
<use xlink:href="#path3_fill" transform="translate(-69.1667 341.333)" fill="#CE7DA5"/>
</g>
<g id="Vector">
<use xlink:href="#path4_fill" transform="translate(-69.1667 358.333)" fill="#BEE5BF"/>
</g>
<g id="Group">
<g id="Vector">
<use xlink:href="#path1_fill" transform="translate(-57.8333 389.5)" fill="#DFF3E3"/>
</g>
<g id="Vector">
<use xlink:href="#path1_fill" transform="translate(-12.5 389.5)" fill="#DFF3E3"/>
</g>
</g>
<g id="Vector">
<use xlink:href="#path5_fill" transform="translate(10.1667 315.833)" fill="#BEE5BF"/>
</g>
<g id="Vector">
<use xlink:href="#path6_fill" transform="translate(78.1667 281.833)" fill="#DFF3E3"/>
</g>
<g id="Group">
<g id="Vector">
<use xlink:href="#path7_fill" transform="translate(7.33334 403.667)" fill="#493657"/>
</g>
<g id="Vector">
<use xlink:href="#path8_fill" transform="translate(-72 338.5)" fill="#493657"/>
</g>
<g id="Vector">
<use xlink:href="#path9_fill" transform="translate(7.33334 279)" fill="#493657"/>
</g>
<g id="Vector">
<use xlink:href="#path10_fill" transform="translate(41.3333 335.667)" fill="#493657"/>
</g>
<g id="Vector">
<use xlink:href="#path10_fill" transform="translate(64 335.667)" fill="#493657"/>
</g>
<g id="Vector">
<use xlink:href="#path10_fill" transform="translate(18.6667 335.667)" fill="#493657"/>
</g>
<g id="Vector">
<use xlink:href="#path11_fill" transform="translate(75.645 382.564)" fill="#493657"/>
</g>
<g id="Vector">
<use xlink:href="#path12_fill" transform="translate(70.6243 392.571)" fill="#493657"/>
</g>
<g id="Vector">
<use xlink:href="#path13_fill" transform="translate(79.062 372.007)" fill="#493657"/>
</g>
<g id="Vector">
<use xlink:href="#path14_fill" transform="translate(80.7847 361.167)" fill="#493657"/>
</g>
<g id="Vector">
<use xlink:href="#path15_fill" transform="translate(-30.724 301.395)" fill="#493657"/>
</g>
<g id="Vector">
<use xlink:href="#path16_fill" transform="translate(-20.728 296.003)" fill="#493657"/>
</g>
<g id="Vector">
<use xlink:href="#path17_fill" transform="translate(13.2975 290.333)" fill="#493657"/>
</g>
<g id="Vector">
<use xlink:href="#path18_fill" transform="translate(-39.6037 308.393)" fill="#493657"/>
</g>
<g id="Vector">
<use xlink:href="#path19_fill" transform="translate(34.675 294.155)" fill="#493657"/>
</g>
<g id="Vector">
<use xlink:href="#path20_fill" transform="translate(-53.1697 326.402)" fill="#493657"/>
</g>
<g id="Vector">
<use xlink:href="#path21_fill" transform="translate(-47.1517 316.797)" fill="#493657"/>
</g>
<g id="Vector">
<use xlink:href="#path22_fill" transform="translate(24.1293 291.316)" fill="#493657"/>
</g>
<g id="Vector">
<use xlink:href="#path23_fill" transform="translate(-9.86782 292.351)" fill="#493657"/>
</g>
<g id="Vector">
<use xlink:href="#path24_fill" transform="translate(1.58733 290.537)" fill="#493657"/>
</g>
<g id="Vector">
<use xlink:href="#path25_fill" transform="translate(44.6597 298.794)" fill="#493657"/>
</g>
<g id="Vector">
<use xlink:href="#path26_fill" transform="translate(-14.8658 427.668)" fill="#493657"/>
</g>
<g id="Vector">
<use xlink:href="#path27_fill" transform="translate(-25.5135 423.03)" fill="#493657"/>
</g>
<g id="Vector">
<use xlink:href="#path28_fill" transform="translate(-35.2233 416.878)" fill="#493657"/>
</g>
<g id="Vector">
<use xlink:href="#path29_fill" transform="translate(-42.913 410.24)" fill="#493657"/>
</g>
<g id="Vector">
<use xlink:href="#path30_fill" transform="translate(-3.541 430.663)" fill="#493657"/>
</g>
</g>
</g>
</g>
</g>
<defs>
<linearGradient id="paint0_linear" x1="0" y1="0" x2="1" y2="0" gradientUnits="userSpaceOnUse" gradientTransform="matrix(-250 -200 250 -200 250 200)">
<stop offset="0" stop-color="#4B4B4D"/>
<stop offset="0.9999" stop-color="#37B80E"/>
</linearGradient>
<path id="path0_fill" fill-rule="evenodd" d="M 0 25C 0 11.1929 11.1929 0 25 0L 225 0C 238.807 0 250 11.1929 250 25L 250 175C 250 188.807 238.807 200 225 200L 25 200C 11.1929 200 0 188.807 0 175L 0 25Z"/>
<path id="path1_fill" d="M 8.5 17C 13.1944 17 17 13.1944 17 8.5C 17 3.80558 13.1944 0 8.5 0C 3.80558 0 0 3.80558 0 8.5C 0 13.1944 3.80558 17 8.5 17Z"/>
<path id="path2_fill" d="M 76.5 0L 70.8333 0L 65.1667 0C 60.4718 0 56.6667 3.80517 56.6667 8.5L 56.6667 14.1667C 56.6667 9.47183 52.8615 5.66667 48.1667 5.66667L 42.5 5.66667L 36.8333 5.66667C 32.1385 5.66667 28.3333 9.47183 28.3333 14.1667L 28.3333 8.5C 28.3333 3.80517 24.5282 0 19.8333 0L 14.1667 0L 8.5 0C 3.80517 0 0 3.80517 0 8.5L 0 17L 28.3333 17L 28.3333 22.6667L 56.6667 22.6667L 56.6667 17L 85 17L 85 8.5C 85 3.80517 81.1948 0 76.5 0Z"/>
<path id="path3_fill" d="M 51 17L 51 0L 0 0L 0 36.8333L 51 36.8333L 51 17Z"/>
<path id="path4_fill" d="M 19.8333 31.1667C 24.5282 31.1667 28.3333 34.9718 28.3333 39.6667L 56.6667 39.6667C 56.6667 34.9718 60.4718 31.1667 65.1667 31.1667C 69.8615 31.1667 73.6667 34.9718 73.6667 39.6667L 82.1667 39.6667L 82.1667 14.1667L 68 0L 51 0L 51 19.8333L 0 19.8333L 0 39.6667L 11.3333 39.6667C 11.3333 34.9718 15.1385 31.1667 19.8333 31.1667Z"/>
<path id="path5_fill" d="M 68 0L 45.3333 14.1667L 45.3333 0L 22.6667 14.1667L 22.6667 0L 0 14.1667L 0 36.8333L 22.6667 36.8333L 45.3333 36.8333L 68 36.8333L 85 36.8333L 85 8.5L 68 8.5L 68 0Z"/>
<path id="path6_fill" d="M 0 34L 0 42.5L 17 42.5L 17 0L 0 0L 0 34Z"/>
<path id="path7_fill" d="M 83.0535 17.6772C 84.2803 15.8667 85 13.6822 85 11.3333C 85 5.083 79.917 0 73.6667 0C 67.4163 0 62.3333 5.083 62.3333 11.3333C 62.3333 13.6822 63.053 15.8667 64.2798 17.6772C 61.0328 18.8162 58.48 21.3662 57.3438 24.6132C 56.542 24.0692 55.6495 23.6697 54.7173 23.3438C 55.947 21.5333 56.6667 19.3488 56.6667 17C 56.6667 10.7497 51.5837 5.66667 45.3333 5.66667C 39.083 5.66667 34 10.7497 34 17C 34 19.3488 34.7197 21.5333 35.9465 23.3438C 35.0172 23.6697 34.1218 24.0692 33.32 24.6132C 32.181 21.3662 29.631 18.8133 26.384 17.6772C 27.6137 15.8667 28.3333 13.6822 28.3333 11.3333C 28.3333 5.083 23.2503 0 17 0C 10.7497 0 5.66667 5.083 5.66667 11.3333C 5.66667 13.6822 6.38633 15.8667 7.61317 17.6772C 3.196 19.227 0 23.392 0 28.3333L 0 36.8333C 0 38.4002 1.2665 39.6667 2.83333 39.6667L 28.3333 39.6667L 28.3333 42.5C 28.3333 44.0668 29.5998 45.3333 31.1667 45.3333L 59.5 45.3333C 61.0668 45.3333 62.3333 44.0668 62.3333 42.5L 62.3333 39.6667L 87.8333 39.6667C 89.4002 39.6667 90.6667 38.4002 90.6667 36.8333L 90.6667 28.3333C 90.6667 23.392 87.4707 19.227 83.0535 17.6772ZM 73.6667 5.66667C 76.7918 5.66667 79.3333 8.20817 79.3333 11.3333C 79.3333 14.4585 76.7918 17 73.6667 17C 70.5415 17 68 14.4585 68 11.3333C 68 8.20817 70.5415 5.66667 73.6667 5.66667ZM 45.3333 11.3333C 48.4585 11.3333 51 13.8748 51 17C 51 20.1252 48.4585 22.6667 45.3333 22.6667C 42.2082 22.6667 39.6667 20.1252 39.6667 17C 39.6667 13.8748 42.2082 11.3333 45.3333 11.3333ZM 17 5.66667C 20.1252 5.66667 22.6667 8.20817 22.6667 11.3333C 22.6667 14.4585 20.1252 17 17 17C 13.8748 17 11.3333 14.4585 11.3333 11.3333C 11.3333 8.20817 13.8748 5.66667 17 5.66667ZM 5.66667 34L 5.66667 28.3333C 5.66667 25.2082 8.20817 22.6667 11.3333 22.6667L 22.6667 22.6667C 25.7918 22.6667 28.3333 25.2082 28.3333 28.3333L 28.3333 34L 5.66667 34ZM 56.6667 39.6667L 34 39.6667L 34 36.8333L 34 34C 34 30.8748 36.5415 28.3333 39.6667 28.3333L 51 28.3333C 54.1252 28.3333 56.6667 30.8748 56.6667 34L 56.6667 36.8333L 56.6667 39.6667ZM 85 34L 62.3333 34L 62.3333 28.3333C 62.3333 25.2082 64.8748 22.6667 68 22.6667L 79.3333 22.6667C 82.4585 22.6667 85 25.2082 85 28.3333L 85 34Z"/>
<path id="path8_fill" d="M 2.83333 62.3333L 11.7357 62.3333C 13.0022 67.2095 17.3995 70.8333 22.6667 70.8333C 27.9338 70.8333 32.3312 67.2095 33.5977 62.3333L 57.069 62.3333C 58.3355 67.2095 62.7328 70.8333 68 70.8333C 73.2672 70.8333 77.6645 67.2095 78.931 62.3333L 85 62.3333C 86.5668 62.3333 87.8333 61.0668 87.8333 59.5L 87.8333 34C 87.8333 33.2463 87.5358 32.5267 87.0032 31.9968L 72.8365 17.8302C 72.3067 17.2975 71.587 17 70.8333 17L 56.6667 17L 56.6667 2.83333C 56.6667 1.2665 55.4002 0 53.8333 0L 2.83333 0C 1.2665 0 0 1.2665 0 2.83333L 0 39.6667L 0 59.5C 0 61.0668 1.2665 62.3333 2.83333 62.3333ZM 22.6667 65.1667C 19.5415 65.1667 17 62.6252 17 59.5C 17 56.3748 19.5415 53.8333 22.6667 53.8333C 25.7918 53.8333 28.3333 56.3748 28.3333 59.5C 28.3333 62.6252 25.7918 65.1667 22.6667 65.1667ZM 68 65.1667C 64.8748 65.1667 62.3333 62.6252 62.3333 59.5C 62.3333 56.3748 64.8748 53.8333 68 53.8333C 71.1252 53.8333 73.6667 56.3748 73.6667 59.5C 73.6667 62.6252 71.1252 65.1667 68 65.1667ZM 69.6603 22.6667L 82.1667 35.173L 82.1667 56.6667L 78.9735 56.6667C 78.8743 56.2813 78.7213 55.9187 78.5825 55.5475C 78.5145 55.3662 78.4692 55.1792 78.3927 55.0007C 78.1207 54.3773 77.8005 53.7795 77.4265 53.2213C 77.3443 53.0967 77.2395 52.989 77.1488 52.8672C 76.84 52.4393 76.5113 52.0313 76.1458 51.6517C 75.9787 51.4788 75.7973 51.3287 75.6217 51.1672C 75.2958 50.8697 74.9643 50.5863 74.6045 50.3285C 74.3948 50.1755 74.1795 50.0367 73.9585 49.9007C 73.593 49.674 73.2162 49.47 72.8223 49.283C 72.59 49.1725 72.3605 49.062 72.1168 48.9657C 71.6833 48.7957 71.2328 48.6653 70.7767 48.5492C 70.5557 48.4925 70.346 48.4217 70.1222 48.3792C 69.4337 48.2488 68.7282 48.1667 68 48.1667C 67.2718 48.1667 66.5663 48.2488 65.875 48.382C 65.6512 48.4245 65.4387 48.4982 65.2205 48.552C 64.7615 48.6682 64.3138 48.7985 63.8803 48.9685C 63.6395 49.0648 63.41 49.1753 63.1748 49.2858C 62.7838 49.4728 62.4042 49.674 62.0387 49.9035C 61.8177 50.0423 61.6023 50.1783 61.3927 50.3313C 61.0357 50.5892 60.7013 50.8725 60.3755 51.17C 60.1998 51.3315 60.0185 51.4817 59.8513 51.6545C 59.4858 52.0342 59.1572 52.4422 58.8483 52.87C 58.7605 52.9918 58.6557 53.0995 58.5707 53.2242C 58.1967 53.7852 57.8737 54.3802 57.6045 55.0035C 57.528 55.1792 57.4827 55.369 57.4147 55.5503C 57.2758 55.9187 57.1228 56.2813 57.0237 56.6695L 33.6373 56.6695C 33.5382 56.2842 33.3852 55.9215 33.2463 55.5503C 33.1783 55.369 33.133 55.182 33.0565 55.0035C 32.7845 54.3802 32.4643 53.7823 32.0903 53.2242C 32.0082 53.0995 31.9033 52.9918 31.8127 52.87C 31.5038 52.4422 31.1752 52.0342 30.8097 51.6545C 30.6425 51.4817 30.4612 51.3315 30.2855 51.17C 29.9597 50.8725 29.6282 50.5892 29.2683 50.3313C 29.0587 50.1783 28.8433 50.0395 28.6223 49.9035C 28.2568 49.6768 27.88 49.4728 27.4862 49.2858C 27.2538 49.1753 27.0243 49.0648 26.7807 48.9685C 26.3472 48.7985 25.8967 48.6682 25.4405 48.552C 25.2195 48.4953 25.0098 48.4245 24.786 48.382C 24.1003 48.2488 23.3948 48.1667 22.6667 48.1667C 21.9385 48.1667 21.233 48.2488 20.5417 48.382C 20.3178 48.4245 20.1053 48.4982 19.8872 48.552C 19.4282 48.6682 18.9805 48.7985 18.547 48.9685C 18.3062 49.0648 18.0767 49.1753 17.8415 49.2858C 17.4505 49.4728 17.0708 49.674 16.7053 49.9035C 16.4843 50.0423 16.269 50.1783 16.0593 50.3313C 15.7023 50.5892 15.368 50.8725 15.0422 51.17C 14.8665 51.3315 14.6852 51.4817 14.518 51.6545C 14.1525 52.0342 13.8238 52.4422 13.515 52.87C 13.4272 52.9918 13.3223 53.0995 13.2373 53.2242C 12.8633 53.7852 12.5403 54.3802 12.2712 55.0035C 12.1947 55.1792 12.1493 55.369 12.0813 55.5503C 11.9453 55.9187 11.7923 56.2813 11.6932 56.6667L 5.66667 56.6667L 5.66667 42.5L 53.8333 42.5C 55.4002 42.5 56.6667 41.2335 56.6667 39.6667L 56.6667 22.6667L 69.6603 22.6667ZM 5.66667 5.66667L 51 5.66667L 51 19.8333L 51 36.8333L 5.66667 36.8333L 5.66667 5.66667Z"/>
<path id="path9_fill" d="M 87.8333 0L 70.8333 0C 69.2665 0 68 1.2665 68 2.83333L 68 35.2637L 51 45.8887L 51 36.8333C 51 35.8048 50.4418 34.8557 49.538 34.3542C 48.6427 33.8583 47.5377 33.881 46.6622 34.4307L 28.3333 45.8887L 28.3333 36.8333C 28.3333 35.8048 27.7752 34.8557 26.8713 34.3542C 25.9732 33.8583 24.871 33.881 23.9955 34.4307L 1.32883 48.5973C 0.504333 49.1158 0 50.0225 0 51L 0 73.6667C 0 75.2335 1.2665 76.5 2.83333 76.5L 25.5 76.5L 48.1667 76.5L 70.8333 76.5L 87.8333 76.5C 89.4002 76.5 90.6667 75.2335 90.6667 73.6667L 90.6667 45.3333L 90.6667 2.83333C 90.6667 1.2665 89.4002 0 87.8333 0ZM 73.6667 5.66667L 85 5.66667L 85 42.5L 73.6667 42.5L 73.6667 36.8333L 73.6667 5.66667ZM 5.66667 52.5725L 22.6667 41.9475L 22.6667 51L 22.6667 70.8333L 5.66667 70.8333L 5.66667 52.5725ZM 28.3333 52.5725L 45.3333 41.9475L 45.3333 51L 45.3333 70.8333L 28.3333 70.8333L 28.3333 52.5725ZM 51 52.5725L 68 41.9475L 68 45.3333L 68 70.8333L 51 70.8333L 51 52.5725ZM 85 70.8333L 73.6667 70.8333L 73.6667 48.1667L 85 48.1667L 85 70.8333Z"/>
<path id="path10_fill" d="M 5.66667 0L 0 0L 0 8.5L 5.66667 8.5L 5.66667 0Z"/>
<path id="path11_fill" d="M 1.72933e-06 5.08867L 5.219 7.29583C 5.98117 5.49666 6.681 3.64083 7.29584 1.78217L 1.91816 -5.27445e-06C 1.34866 1.71416 0.702668 3.4255 1.72933e-06 5.08867Z"/>
<path id="path12_fill" d="M 3.54513e-06 4.7175L 4.79683 7.73217C 5.84233 6.069 6.83117 4.352 7.72934 2.618L 2.70583 -1.0376e-06C 1.87566 1.598 0.96617 3.18467 3.54513e-06 4.7175Z"/>
<path id="path13_fill" d="M 5.36092e-06 5.3295L 5.50516 6.67533C 5.967 4.78266 6.35799 2.839 6.66966 0.901003L 1.07383 6.05265e-07C 0.790499 1.79067 0.427839 3.587 5.36092e-06 5.3295Z"/>
<path id="path14_fill" d="M 5.882 0L 0.215333 0C 0.215333 1.82467 0.144499 3.65216 -6.05265e-07 5.43433L 5.64966 5.88766C 5.8055 3.95533 5.882 1.972 5.882 0Z"/>
<path id="path15_fill" d="M 4.879 -5.51224e-07C 3.22434 1.0285 1.58383 2.142 -4.53949e-07 3.30933L 3.36883 7.86817C 4.828 6.78867 6.341 5.76017 7.86533 4.81383L 4.879 -5.51224e-07Z"/>
<path id="path16_fill" d="M 7.5225 5.23033L 5.338 -2.05358e-07C 3.53883 0.753666 1.7425 1.59233 1.90226e-06 2.4905L 2.59533 7.52533C 4.20466 6.69517 5.865 5.9245 7.5225 5.23033Z"/>
<path id="path17_fill" d="M 0.0226691 0L -1.297e-06 5.66667C 1.82183 5.67517 3.64933 5.7545 5.43433 5.90467L 5.91034 0.260667C 3.97801 0.0963334 1.9975 0.0085 0.0226691 0Z"/>
<path id="path18_fill" d="M 8.007 4.27267L 4.284 -1.14568e-06C 2.805 1.28917 1.36283 2.64917 4.32332e-08 4.0375L 4.046 8.00417C 5.304 6.72067 6.63567 5.4655 8.007 4.27267Z"/>
<path id="path19_fill" d="M 7.31283 2.10233C 5.50233 1.32883 3.64933 0.6205 1.80483 -6.48499e-08L 4.32332e-06 5.372C 1.70567 5.9415 3.41134 6.596 5.07734 7.31L 7.31283 2.10233Z"/>
<path id="path20_fill" d="M -2.59399e-07 5.18217L 5.08583 7.684C 5.89617 6.03783 6.76883 4.4285 7.6755 2.90416L 2.81067 -1.297e-06C 1.82467 1.65183 0.878333 3.39717 -2.59399e-07 5.18217Z"/>
<path id="path21_fill" d="M 1.297e-06 4.6665L 4.62683 7.94183C 5.661 6.477 6.77733 5.02917 7.94467 3.6295L 3.5955 4.32332e-07C 2.329 1.51583 1.11917 3.0855 1.297e-06 4.6665Z"/>
<path id="path22_fill" d="M 0.923671 3.45866e-07L 3.97746e-06 5.59017C 1.79917 5.88767 3.58983 6.256 5.32383 6.69233L 6.69517 1.19283C 4.811 0.7225 2.87017 0.320167 0.923671 3.45866e-07Z"/>
<path id="path23_fill" d="M 5.67516 -3.02633e-07C 3.77966 0.4505 1.87 0.991667 2.42106e-06 1.60083L 1.7595 6.98417C 3.48216 6.42317 5.24167 5.9245 6.987 5.508L 5.67516 -3.02633e-07Z"/>
<path id="path24_fill" d="M 5.848 7.56582e-08C 3.8845 0.150167 1.91533 0.376833 3.45866e-07 0.6715L 0.869831 6.273C 2.6435 5.99533 4.4625 5.7885 6.27583 5.64967L 5.848 7.56582e-08Z"/>
<path id="path25_fill" d="M 2.64634 1.72933e-07L -6.05265e-07 5.015C 1.5895 5.85083 3.17333 6.76883 4.709 7.7435L 7.74066 2.958C 6.08033 1.90117 4.36617 0.9095 2.64634 1.72933e-07Z"/>
<path id="path26_fill" d="M 1.9975 1.90226e-06L 2.59399e-06 5.30116C 1.83317 5.9925 3.71734 6.61866 5.59867 7.15416L 7.15983 1.7085C 5.42867 1.20984 3.69184 0.634669 1.9975 1.90226e-06Z"/>
<path id="path27_fill" d="M 2.822 -1.0376e-06L -1.1673e-06 4.913C 1.70567 5.8905 3.46233 6.80566 5.22467 7.63866L 7.64433 2.51317C 6.01517 1.74534 4.39167 0.900999 2.822 -1.0376e-06Z"/>
<path id="path28_fill" d="M 3.56433 -5.10152e-06L -1.297e-06 4.40583C 1.53283 5.64683 3.1195 6.83116 4.72033 7.92766L 7.92483 3.25833C 6.4515 2.24117 4.981 1.14749 3.56433 -5.10152e-06Z"/>
<path id="path29_fill" d="M 4.1565 -8.64665e-07L -5.83649e-07 3.8505C 1.04833 4.98384 2.13917 6.086 3.25833 7.15417L 7.1655 3.04867C 6.13133 2.0655 5.12833 1.0455 4.1565 -8.64665e-07Z"/>
<path id="path30_fill" d="M 1.11916 -3.45866e-07L 1.85903e-06 5.55616C 1.92667 5.94433 3.88167 6.25883 5.81683 6.49117L 6.49116 0.864167C 4.70616 0.651667 2.90133 0.359833 1.11916 -3.45866e-07Z"/>
</defs>
</svg>
