<svg width="250" height="201" viewBox="0 0 250 201" version="1.1" xmlns="http://www.w3.org/2000/svg" xmlns:xlink="http://www.w3.org/1999/xlink">
<title>Financing img</title>
<desc>Created using Figma</desc>
<g id="Canvas" transform="translate(568 -249)">
<g id="Financing img">
<g id="image1">
<g id="Mask">
<use xlink:href="#path0_fill" transform="translate(-568 249)" fill="url(#paint0_linear)"/>
</g>
<mask id="mask0_outline" mask-type="alpha">
<g id="Mask">
<use xlink:href="#path1_fill" transform="translate(-568 249)" fill="#FFFFFF"/>
</g>
</mask>
</g>
<g id="005-money-bag">
<g id="Vector">
<use xlink:href="#path2_fill" transform="translate(-518 328.629)" fill="#F2B233"/>
</g>
<g id="Vector">
<use xlink:href="#path3_fill" transform="translate(-443 328.903)" fill="#DD981D"/>
</g>
<g id="Vector">
<use xlink:href="#path4_fill" transform="translate(-479.524 279.161)" fill="#F2B233"/>
</g>
<g id="Vector">
<use xlink:href="#path5_fill" transform="translate(-443 279.161)" fill="#DD981D"/>
</g>
<g id="Vector">
<use xlink:href="#path6_fill" transform="translate(-475.063 325.623)" fill="#04AF76"/>
</g>
<g id="Vector">
<use xlink:href="#path7_fill" transform="translate(-470.881 325.897)" fill="#008C61"/>
</g>
<g id="Vector">
<use xlink:href="#path8_fill" transform="translate(-476.457 362.241)" fill="#04AF76"/>
</g>
<g id="Vector">
<use xlink:href="#path9_fill" transform="translate(-466.699 362.173)" fill="#008C61"/>
</g>
<g id="Vector">
<use xlink:href="#path10_fill" transform="translate(-456.94 369.62)" fill="#FFF6E1"/>
</g>
<g id="Group">
<g id="Vector">
<use xlink:href="#path11_fill" transform="translate(-443 369.62)" fill="#FFEEBD"/>
</g>
<g id="Vector">
<use xlink:href="#path12_fill" transform="translate(-443 389.568)" fill="#FFEEBD"/>
</g>
</g>
</g>
</g>
</g>
<defs>
<linearGradient id="paint0_linear" x1="0" y1="0" x2="1" y2="0" gradientUnits="userSpaceOnUse" gradientTransform="matrix(-250 -200 250 -200 250 200)">
<stop offset="0" stop-color="#4B4B4D"/>
<stop offset="0.9999" stop-color="#37B80E"/>
</linearGradient>
<path id="path0_fill" fill-rule="evenodd" d="M 0 25C 0 11.1929 11.1929 0 25 0L 225 0C 238.807 0 250 11.1929 250 25L 250 175C 250 188.807 238.807 200 225 200L 25 200C 11.1929 200 0 188.807 0 175L 0 25Z"/>
<path id="path1_fill" fill-rule="evenodd" d="M 0 25C 0 11.1929 11.1929 0 25 0L 195 0C 208.807 0 220 11.1929 220 25L 220 175C 220 188.807 208.807 200 195 200L 25 200C 11.1929 200 0 188.807 0 175L 0 25Z"/>
<path id="path2_fill" d="M 150 88.8121C 150 122.151 116.543 120.238 75 120.238C 33.4572 120.238 -2.12715e-07 121.878 -2.12715e-07 88.8121C -2.12715e-07 55.4734 33.4572 2.50184e-06 75 2.50184e-06C 116.543 0.273271 150 55.7467 150 88.8121Z"/>
<path id="path3_fill" d="M -1.27629e-06 -1.6679e-06C 41.5427 -1.6679e-06 75 55.4734 75 88.8121C 75 122.151 41.5427 120.238 -1.27629e-06 120.238"/>
<path id="path4_fill" d="M -2.33987e-06 15.31C -2.33987e-06 -0.812819 16.4498 0.00698531 36.5242 0.00698531C 56.5985 0.00698531 73.0483 -0.812819 73.0483 15.31C 73.0483 31.4328 56.5985 58.4864 36.5242 58.4864C 16.4498 58.4864 -2.33987e-06 31.4328 -2.33987e-06 15.31Z"/>
<path id="path5_fill" d="M -1.27629e-06 0.00698531C 20.0743 0.00698531 36.5242 -0.812819 36.5242 15.31C 36.5242 31.4328 20.0743 58.4864 -1.27629e-06 58.4864"/>
<path id="path6_fill" d="M 64.1264 6.28516C 64.1264 9.01785 61.8959 11.204 59.1078 11.204L 5.01859 11.204C 2.23049 11.204 -1.27629e-06 9.01785 -1.27629e-06 6.28516L -1.27629e-06 4.91882C -1.27629e-06 2.18614 2.23049 1.45941e-06 5.01859 1.45941e-06L 59.3866 1.45941e-06C 62.1747 1.45941e-06 64.4052 2.18614 64.4052 4.91882L 64.4052 6.28516L 64.1264 6.28516Z"/>
<path id="path7_fill" d="M -1.27629e-06 2.50184e-06L 55.2045 2.50184e-06C 57.9926 2.50184e-06 60.2231 2.18615 60.2231 4.91883L 60.2231 6.28517C 60.2231 9.01785 57.435 11.204 54.6469 11.204"/>
<path id="path8_fill" d="M 33.4573 65.5843C 51.9352 65.5843 66.9145 50.9028 66.9145 32.7922C 66.9145 14.6816 51.9352 0 33.4573 0C 14.9793 0 0 14.6816 0 32.7922C 0 50.9028 14.9793 65.5843 33.4573 65.5843Z"/>
<path id="path9_fill" d="M -1.27629e-06 9.6327C 13.1041 -3.2109 34.2937 -3.2109 47.3978 9.6327C 60.5019 22.4763 60.5019 43.2447 47.3978 56.0883"/>
<path id="path10_fill" d="M 11.1524 51.9209L 11.1524 45.0892C 5.57621 44.816 2.50929 43.7229 -1.27629e-06 42.3566L 1.67286 34.9783C 4.46097 36.3447 8.0855 37.711 12.2677 37.711C 15.8922 37.711 18.4015 36.3446 18.4015 33.8852C 18.4015 31.4258 16.4498 30.0595 11.4312 28.4199C 4.46097 26.2337 -1.27629e-06 22.9545 -1.27629e-06 16.9426C -1.27629e-06 11.4773 2.50929 7.10497 10.8736 5.73863L 10.8736 2.50184e-06L 16.4498 2.50184e-06L 16.4498 5.46536C 22.026 5.73863 23.9777 6.55843 25.9294 7.65151L 24.2565 14.7565C 22.5836 13.9367 19.7955 12.5703 15.0558 12.5703C 10.8736 12.5703 9.47955 14.2099 9.47955 16.1228C 9.47955 18.309 11.71 19.402 17.2862 21.5882C 24.8141 24.3209 27.881 27.6001 27.881 33.3387C 27.881 39.0773 24.8141 43.7229 16.4498 45.0892L 16.4498 51.9209L 11.1524 51.9209Z"/>
<path id="path11_fill" d="M -1.27629e-06 2.50184e-06L -1.27629e-06 12.5703C -1.27629e-06 12.5703 0.83643 12.5703 1.39405 12.5703C 6.13383 12.5703 8.92193 13.9367 10.5948 14.7565L 12.2677 7.65151C 10.0372 6.55843 8.36431 5.46536 2.7881 5.46536L 2.7881 2.50184e-06L -1.27629e-06 2.50184e-06Z"/>
<path id="path12_fill" d="M 3.62453 1.36634C 2.23048 0.819805 0.83643 0.273268 -1.27629e-06 4.16974e-07L -1.27629e-06 9.29112C 2.7881 10.6575 4.46097 12.0238 4.46097 13.9367C 4.46097 16.1228 2.7881 17.2159 -1.27629e-06 17.7624L -1.27629e-06 31.9724L 2.7881 31.9724L 2.7881 24.8674C 11.1524 23.501 14.2193 18.8555 14.2193 13.1169C 14.2193 7.37824 11.1524 4.09902 3.62453 1.36634Z"/>
</defs>
</svg>
