<svg width="1440" height="350" viewBox="0 0 1440 350" version="1.1" xmlns="http://www.w3.org/2000/svg" xmlns:xlink="http://www.w3.org/1999/xlink">
<title>Group</title>
<desc>Created using Figma</desc>
<g id="Canvas" transform="translate(720 -792)">
<g id="Group">
<g id="Rectangle">
<use xlink:href="#path0_fill" transform="translate(-720 792)" fill="#333333"/>
</g>
<g id="Bg-decor">
<g id="001-sprout">
<g id="Vector">
<use xlink:href="#path1_fill" transform="translate(-478 989.292)" fill="#FFFFFF" fill-opacity="0.6"/>
</g>
</g>
<g id="Vector">
<use xlink:href="#path2_fill" transform="translate(506 894.2)" fill="#FFFFFF" fill-opacity="0.6"/>
</g>
<g id="Vector">
<use xlink:href="#path3_fill" transform="translate(-586 864.8)" fill="#FFFFFF" fill-opacity="0.6"/>
</g>
<g id="Vector">
<use xlink:href="#path4_fill" transform="translate(-106 989.292)" fill="#FFFFFF" fill-opacity="0.6"/>
</g>
<g id="Oval Copy">
<use xlink:href="#path5_fill" transform="translate(352 837.574)" fill="#FFFFFF" fill-opacity="0.6"/>
</g>
<g id="Oval Copy">
<use xlink:href="#path6_fill" transform="translate(16 840.214)" fill="#FFFFFF" fill-opacity="0.6"/>
</g>
<g id="Star">
<use xlink:href="#path7_fill" transform="matrix(3.88335e-16 -1 0.955057 0.296421 -366.76 843.397)" fill="#FFFFFF" fill-opacity="0.6"/>
</g>
<g id="Vector">
<use xlink:href="#path8_fill" transform="translate(-623 1104.11)" fill="#FFFFFF" fill-opacity="0.6"/>
</g>
<g id="Vector">
<use xlink:href="#path8_fill" transform="matrix(0.304639 0.952468 -0.995309 0.096752 616.622 1078.21)" fill="#FFFFFF" fill-opacity="0.6"/>
</g>
<g id="Vector">
<use xlink:href="#path9_fill" transform="matrix(0.30464 -0.952468 0.995309 0.0967515 -409.355 1116.77)" fill="#FFFFFF" fill-opacity="0.6"/>
</g>
<g id="002-tree-with-many-leaves">
<g id="Group">
<g id="Group">
<g id="Vector">
<use xlink:href="#path10_fill" transform="translate(-560.7 938.413)" fill="#FFFFFF" fill-opacity="0.6"/>
</g>
<g id="Vector">
<use xlink:href="#path11_fill" transform="translate(-478.956 951.653)" fill="#FFFFFF" fill-opacity="0.6"/>
</g>
<g id="Vector">
<use xlink:href="#path12_fill" transform="translate(-481.824 924.385)" fill="#FFFFFF" fill-opacity="0.6"/>
</g>
<g id="Vector">
<use xlink:href="#path13_fill" transform="translate(-453.664 926.891)" fill="#FFFFFF" fill-opacity="0.6"/>
</g>
<g id="Vector">
<use xlink:href="#path14_fill" transform="translate(-437.201 957.724)" fill="#FFFFFF" fill-opacity="0.6"/>
</g>
<g id="Vector">
<use xlink:href="#path15_fill" transform="translate(-429.064 937.139)" fill="#FFFFFF" fill-opacity="0.6"/>
</g>
<g id="Vector">
<use xlink:href="#path16_fill" transform="translate(-500.07 946.527)" fill="#FFFFFF" fill-opacity="0.6"/>
</g>
<g id="Vector">
<use xlink:href="#path17_fill" transform="translate(-478.79 900.695)" fill="#FFFFFF" fill-opacity="0.6"/>
</g>
<g id="Vector">
<use xlink:href="#path18_fill" transform="translate(-449.571 900.693)" fill="#FFFFFF" fill-opacity="0.6"/>
</g>
<g id="Vector">
<use xlink:href="#path19_fill" transform="translate(-485.508 881.453)" fill="#FFFFFF" fill-opacity="0.6"/>
</g>
<g id="Vector">
<use xlink:href="#path20_fill" transform="translate(-508.442 864.8)" fill="#FFFFFF" fill-opacity="0.6"/>
</g>
<g id="Vector">
<use xlink:href="#path21_fill" transform="translate(-516.24 896.189)" fill="#FFFFFF" fill-opacity="0.6"/>
</g>
<g id="Vector">
<use xlink:href="#path22_fill" transform="translate(-570.014 912.662)" fill="#FFFFFF" fill-opacity="0.6"/>
</g>
<g id="Vector">
<use xlink:href="#path23_fill" transform="translate(-596.235 902.311)" fill="#FFFFFF" fill-opacity="0.6"/>
</g>
<g id="Vector">
<use xlink:href="#path24_fill" transform="translate(-582.717 958.294)" fill="#FFFFFF" fill-opacity="0.6"/>
</g>
<g id="Vector">
<use xlink:href="#path25_fill" transform="translate(-594.602 930.885)" fill="#FFFFFF" fill-opacity="0.6"/>
</g>
<g id="Vector">
<use xlink:href="#path26_fill" transform="translate(-561.448 885.178)" fill="#FFFFFF" fill-opacity="0.6"/>
</g>
<g id="Vector">
<use xlink:href="#path27_fill" transform="translate(-536.246 885.178)" fill="#FFFFFF" fill-opacity="0.6"/>
</g>
<g id="Vector">
<use xlink:href="#path28_fill" transform="translate(-500.952 903.998)" fill="#FFFFFF" fill-opacity="0.6"/>
</g>
<g id="Vector">
<use xlink:href="#path29_fill" transform="translate(-534.419 910.847)" fill="#FFFFFF" fill-opacity="0.6"/>
</g>
<g id="Vector">
<use xlink:href="#path30_fill" transform="translate(-568.342 936.25)" fill="#FFFFFF" fill-opacity="0.6"/>
</g>
<g id="Vector">
<use xlink:href="#path31_fill" transform="translate(-555.437 965.39)" fill="#FFFFFF" fill-opacity="0.6"/>
</g>
</g>
</g>
<g id="001-sprout">
<g id="Vector">
<use xlink:href="#path32_fill" transform="translate(-596.235 1044)" fill="#FFFFFF" fill-opacity="0.6"/>
</g>
</g>
<g id="001-sprout">
<g id="Vector">
<use xlink:href="#path32_fill" transform="translate(-633 1044)" fill="#FFFFFF" fill-opacity="0.6"/>
</g>
</g>
<g id="001-sprout">
<g id="Vector">
<use xlink:href="#path32_fill" transform="translate(-405.059 1044)" fill="#FFFFFF" fill-opacity="0.6"/>
</g>
</g>
<g id="001-sprout">
<g id="Vector">
<use xlink:href="#path32_fill" transform="translate(-449.176 1044)" fill="#FFFFFF" fill-opacity="0.6"/>
</g>
</g>
</g>
<g id="002-tree-with-many-leaves">
<g id="Group">
<g id="Group">
<g id="Vector">
<use xlink:href="#path10_fill" transform="translate(380.3 935.613)" fill="#FFFFFF" fill-opacity="0.6"/>
</g>
<g id="Vector">
<use xlink:href="#path11_fill" transform="translate(462.044 948.853)" fill="#FFFFFF" fill-opacity="0.6"/>
</g>
<g id="Vector">
<use xlink:href="#path12_fill" transform="translate(459.176 921.585)" fill="#FFFFFF" fill-opacity="0.6"/>
</g>
<g id="Vector">
<use xlink:href="#path13_fill" transform="translate(487.336 924.092)" fill="#FFFFFF" fill-opacity="0.6"/>
</g>
<g id="Vector">
<use xlink:href="#path14_fill" transform="translate(503.799 954.924)" fill="#FFFFFF" fill-opacity="0.6"/>
</g>
<g id="Vector">
<use xlink:href="#path15_fill" transform="translate(511.936 934.339)" fill="#FFFFFF" fill-opacity="0.6"/>
</g>
<g id="Vector">
<use xlink:href="#path16_fill" transform="translate(440.93 943.727)" fill="#FFFFFF" fill-opacity="0.6"/>
</g>
<g id="Vector">
<use xlink:href="#path17_fill" transform="translate(462.21 897.895)" fill="#FFFFFF" fill-opacity="0.6"/>
</g>
<g id="Vector">
<use xlink:href="#path18_fill" transform="translate(491.429 897.893)" fill="#FFFFFF" fill-opacity="0.6"/>
</g>
<g id="Vector">
<use xlink:href="#path19_fill" transform="translate(455.492 878.653)" fill="#FFFFFF" fill-opacity="0.6"/>
</g>
<g id="Vector">
<use xlink:href="#path20_fill" transform="translate(432.558 862)" fill="#FFFFFF" fill-opacity="0.6"/>
</g>
<g id="Vector">
<use xlink:href="#path21_fill" transform="translate(424.76 893.389)" fill="#FFFFFF" fill-opacity="0.6"/>
</g>
<g id="Vector">
<use xlink:href="#path22_fill" transform="translate(370.986 909.862)" fill="#FFFFFF" fill-opacity="0.6"/>
</g>
<g id="Vector">
<use xlink:href="#path23_fill" transform="translate(344.765 899.511)" fill="#FFFFFF" fill-opacity="0.6"/>
</g>
<g id="Vector">
<use xlink:href="#path24_fill" transform="translate(358.283 955.495)" fill="#FFFFFF" fill-opacity="0.6"/>
</g>
<g id="Vector">
<use xlink:href="#path25_fill" transform="translate(346.399 928.085)" fill="#FFFFFF" fill-opacity="0.6"/>
</g>
<g id="Vector">
<use xlink:href="#path26_fill" transform="translate(379.552 882.378)" fill="#FFFFFF" fill-opacity="0.6"/>
</g>
<g id="Vector">
<use xlink:href="#path27_fill" transform="translate(404.754 882.378)" fill="#FFFFFF" fill-opacity="0.6"/>
</g>
<g id="Vector">
<use xlink:href="#path28_fill" transform="translate(440.048 901.198)" fill="#FFFFFF" fill-opacity="0.6"/>
</g>
<g id="Vector">
<use xlink:href="#path29_fill" transform="translate(406.581 908.047)" fill="#FFFFFF" fill-opacity="0.6"/>
</g>
<g id="Vector">
<use xlink:href="#path30_fill" transform="translate(372.658 933.45)" fill="#FFFFFF" fill-opacity="0.6"/>
</g>
<g id="Vector">
<use xlink:href="#path31_fill" transform="translate(385.563 962.59)" fill="#FFFFFF" fill-opacity="0.6"/>
</g>
</g>
</g>
<g id="001-sprout">
<g id="Vector">
<use xlink:href="#path32_fill" transform="translate(344.765 1041.2)" fill="#FFFFFF" fill-opacity="0.6"/>
</g>
</g>
<g id="001-sprout">
<g id="Vector">
<use xlink:href="#path32_fill" transform="translate(308 1041.2)" fill="#FFFFFF" fill-opacity="0.6"/>
</g>
</g>
<g id="001-sprout">
<g id="Vector">
<use xlink:href="#path32_fill" transform="translate(535.941 1041.2)" fill="#FFFFFF" fill-opacity="0.6"/>
</g>
</g>
<g id="001-sprout">
<g id="Vector">
<use xlink:href="#path32_fill" transform="translate(491.824 1041.2)" fill="#FFFFFF" fill-opacity="0.6"/>
</g>
</g>
</g>
</g>
</g>
</g>
<defs>
<path id="path0_fill" d="M 0 0L 1440 0L 1440 350L 0 350L 0 0Z"/>
<path id="path1_fill" d="M 29.3869 27.0931L 26.9987 27.0931C 24.2046 25.3269 20.0975 24.2842 15.613 24.1969L 15.613 21.5207L 18.4353 19.4326C 18.9516 19.5036 19.4746 19.5389 19.9986 19.5389C 22.4129 19.5389 24.8389 18.8003 26.6435 17.4651C 28.9253 15.777 29.9178 13.3544 29.2338 11.1429C 29.1813 10.9732 29.0022 10.8407 28.7729 10.8019C 25.7838 10.2958 22.5094 11.0301 20.2276 12.7183C 18.0312 14.3432 17.0302 16.6485 17.5683 18.7912L 15.613 20.2378L 15.613 11.8741L 17.4544 10.5118C 17.8102 10.5567 18.1702 10.5789 18.5304 10.5789C 20.3289 10.5789 22.135 10.0294 23.478 9.0357C 25.1765 7.77915 25.9149 5.9746 25.405 4.32633C 25.3526 4.15663 25.1735 4.02418 24.9442 3.98535C 22.7163 3.60827 20.2773 4.15445 18.5789 5.41106C 16.9654 6.60478 16.2192 8.29279 16.5855 9.87169L 15.613 10.5911L 15.613 9.7139C 15.613 8.31353 14.8819 6.99668 13.5547 6.00042C 13.9191 4.42249 13.1728 2.73599 11.5604 1.54312C 9.86197 0.286507 7.42315 -0.259732 5.19506 0.11741C 4.96577 0.156237 4.78667 0.288745 4.73419 0.458386C 4.22435 2.1066 4.96274 3.91114 6.66121 5.16776C 8.00434 6.16148 9.81023 6.71092 11.6088 6.71092C 11.9705 6.71092 12.3319 6.68854 12.6892 6.64324C 13.7838 7.46799 14.3868 8.55653 14.3868 9.71396L 14.3868 16.3671L 12.4316 14.9205C 12.9697 12.7779 11.9686 10.4726 9.7723 8.84761C 7.4905 7.15937 4.21601 6.42504 1.22697 6.93124C 0.997682 6.97007 0.818581 7.10258 0.766102 7.27222C 0.0820706 9.48372 1.07452 11.9063 3.35631 13.5945C 5.16113 14.9298 7.5868 15.6683 10.0013 15.6683C 10.5251 15.6683 11.0482 15.6329 11.5645 15.5619L 14.3869 17.65L 14.3869 24.1968C 9.90243 24.2841 5.7953 25.3268 3.00122 27.0931L 0.613078 27.0931C 0.274495 27.0931 9.23009e-08 27.2962 9.23009e-08 27.5467C 9.23009e-08 27.7972 0.274495 28.0003 0.613078 28.0003L 29.3869 28.0003C 29.7254 28.0003 29.9999 27.7972 29.9999 27.5467C 29.9999 27.2962 29.7254 27.0931 29.3869 27.0931ZM 21.0946 13.3597C 22.9826 11.963 25.6402 11.3146 28.1154 11.6293C 28.541 13.4608 27.6645 15.4268 25.7766 16.8237C 24.0849 18.0752 21.7755 18.7254 19.5327 18.6207L 25.2564 14.3861C 25.4958 14.2089 25.4958 13.9217 25.2564 13.7446C 25.0169 13.5675 24.6287 13.5675 24.3894 13.7446L 18.6658 17.9793C 18.5242 16.3199 19.403 14.6112 21.0946 13.3597ZM 19.4459 6.05262C 20.7495 5.08817 22.5708 4.62841 24.2828 4.81578C 24.5359 6.08225 23.9147 7.42982 22.611 8.39433C 21.513 9.20673 20.0476 9.66086 18.5896 9.67193L 22.1159 7.06296C 22.3553 6.88582 22.3553 6.59861 22.1159 6.42153C 21.8765 6.24439 21.4883 6.24439 21.2489 6.42153L 17.7188 9.03328C 17.7319 7.95284 18.346 6.86641 19.4459 6.05262ZM 5.85661 0.947775C 7.56857 0.760656 9.38982 1.22011 10.6935 2.18461C 11.7915 2.99702 12.4053 4.08127 12.4203 5.1599L 8.89396 2.55093C 8.65453 2.37379 8.26633 2.37379 8.02699 2.55093C 7.78756 2.72807 7.78756 3.01528 8.02699 3.19236L 11.5571 5.80411C 10.0968 5.79449 8.62829 5.34012 7.52835 4.52633C 6.2247 3.56182 5.60353 2.21425 5.85661 0.947775ZM 4.22337 12.9531C 2.33542 11.5562 1.45904 9.59016 1.88452 7.7587C 4.3598 7.44385 7.01737 8.09236 8.90532 9.4891C 10.5969 10.7406 11.4757 12.4493 11.3342 14.1086L 5.61056 9.87399C 5.37113 9.69685 4.98293 9.69685 4.74359 9.87399C 4.50416 10.0511 4.50416 10.3383 4.74359 10.5154L 10.4672 14.75C 8.22456 14.8548 5.91506 14.2046 4.22337 12.9531ZM 15 25.0974C 18.7332 25.0974 22.3196 25.8293 24.9489 27.0931L 5.05102 27.0931C 7.68031 25.8292 11.2667 25.0974 15 25.0974Z"/>
<path id="path2_fill" d="M 29.387 27.0929L 26.9989 27.0929C 24.2048 25.3266 20.0976 24.284 15.6131 24.1967L 15.6131 21.5205L 18.4354 19.4324C 18.9517 19.5034 19.4747 19.5388 19.9987 19.5388C 22.413 19.5388 24.839 18.8001 26.6437 17.465C 28.9255 15.7768 29.918 13.3543 29.2339 11.1428C 29.1815 10.9731 29.0024 10.8406 28.7731 10.8018C 25.7839 10.2957 22.5095 11.03 20.2277 12.7182C 18.0313 14.3431 17.0303 16.6484 17.5684 18.791L 15.6131 20.2376L 15.6131 11.874L 17.4545 10.5117C 17.8103 10.5566 18.1703 10.5788 18.5305 10.5788C 20.329 10.5788 22.1352 10.0293 23.4782 9.03562C 25.1766 7.77907 25.915 5.97454 25.4052 4.32629C 25.3527 4.15659 25.1736 4.02414 24.9443 3.98531C 22.7165 3.60824 20.2775 4.15441 18.579 5.41101C 16.9655 6.60472 16.2193 8.29271 16.5856 9.8716L 15.6131 10.591L 15.6131 9.71381C 15.6131 8.31345 14.882 6.99661 13.5547 6.00037C 13.9192 4.42245 13.1728 2.73597 11.5605 1.54311C 9.86203 0.286504 7.42319 -0.259729 5.19509 0.117409C 4.9658 0.156236 4.78669 0.288742 4.73422 0.458382C 4.22438 2.10658 4.96277 3.91111 6.66125 5.16771C 8.00439 6.16142 9.81029 6.71086 11.6089 6.71086C 11.9705 6.71086 12.332 6.68848 12.6893 6.64318C 13.7839 7.46792 14.3869 8.55645 14.3869 9.71387L 14.3869 16.367L 12.4317 14.9204C 12.9698 12.7778 11.9687 10.4725 9.77236 8.84753C 7.49055 7.1593 4.21604 6.42498 1.22698 6.93118C 0.997688 6.97 0.818586 7.10251 0.766107 7.27215C 0.0820711 9.48364 1.07453 11.9062 3.35634 13.5944C 5.16117 14.9296 7.58684 15.6681 10.0013 15.6681C 10.5251 15.6681 11.0483 15.6328 11.5646 15.5618L 14.387 17.6499L 14.387 24.1966C 9.90249 24.2839 5.79534 25.3266 3.00124 27.0928L 0.613082 27.0928C 0.274497 27.0928 9.23015e-08 27.2959 9.23015e-08 27.5464C 9.23015e-08 27.7969 0.274497 28 0.613082 28L 29.387 28C 29.7256 28 30.0001 27.7969 30.0001 27.5464C 30.0001 27.2959 29.7256 27.0929 29.387 27.0929ZM 21.0947 13.3596C 22.9827 11.9629 25.6404 11.3145 28.1156 11.6292C 28.5412 13.4606 27.6647 15.4267 25.7767 16.8235C 24.085 18.075 21.7756 18.7252 19.5329 18.6205L 25.2565 14.3859C 25.4959 14.2088 25.4959 13.9216 25.2565 13.7445C 25.0171 13.5674 24.6289 13.5674 24.3895 13.7445L 18.6659 17.9791C 18.5243 16.3197 19.4031 14.6111 21.0947 13.3596ZM 19.446 6.05256C 20.7496 5.08812 22.571 4.62837 24.2829 4.81573C 24.536 6.08219 23.9148 7.42976 22.6112 8.39425C 21.5131 9.20665 20.0478 9.66077 18.5897 9.67184L 22.1161 7.0629C 22.3555 6.88576 22.3555 6.59855 22.1161 6.42147C 21.8766 6.24433 21.4884 6.24433 21.2491 6.42147L 17.719 9.0332C 17.732 7.95277 18.3461 6.86635 19.446 6.05256ZM 5.85665 0.947766C 7.56861 0.760649 9.38987 1.2201 10.6935 2.18459C 11.7916 2.99699 12.4054 4.08123 12.4204 5.15985L 8.89402 2.55091C 8.65459 2.37377 8.26638 2.37377 8.02704 2.55091C 7.78761 2.72805 7.78761 3.01525 8.02704 3.19233L 11.5572 5.80406C 10.0969 5.79444 8.62835 5.34007 7.5284 4.52629C 6.22474 3.56179 5.60357 2.21423 5.85665 0.947766ZM 4.2234 12.9529C 2.33543 11.5561 1.45905 9.59008 1.88453 7.75863C 4.35983 7.44379 7.01741 8.09229 8.90538 9.48902C 10.597 10.7405 11.4757 12.4492 11.3342 14.1085L 5.6106 9.8739C 5.37117 9.69676 4.98296 9.69676 4.74362 9.8739C 4.50419 10.051 4.50419 10.3382 4.74362 10.5153L 10.4673 14.7499C 8.22461 14.8547 5.91509 14.2045 4.2234 12.9529ZM 15.0001 25.0971C 18.7333 25.0971 22.3198 25.829 24.9491 27.0929L 5.05106 27.0929C 7.68036 25.829 11.2668 25.0971 15.0001 25.0971Z"/>
<path id="path3_fill" d="M 29.3869 27.093L 26.9988 27.093C 24.2047 25.3267 20.0975 24.284 15.6131 24.1968L 15.6131 21.5206L 18.4354 19.4325C 18.9517 19.5035 19.4746 19.5388 19.9986 19.5388C 22.4129 19.5388 24.8389 18.8002 26.6436 17.465C 28.9254 15.7769 29.9178 13.3543 29.2338 11.1428C 29.1813 10.9732 29.0022 10.8407 28.7729 10.8018C 25.7838 10.2958 22.5094 11.0301 20.2276 12.7182C 18.0312 14.3431 17.0302 16.6484 17.5683 18.7911L 15.6131 20.2376L 15.6131 11.874L 17.4544 10.5117C 17.8103 10.5567 18.1702 10.5788 18.5304 10.5788C 20.329 10.5788 22.1351 10.0293 23.4781 9.03564C 25.1765 7.7791 25.9149 5.97456 25.4051 4.3263C 25.3526 4.1566 25.1735 4.02415 24.9442 3.98533C 22.7164 3.60825 20.2774 4.15442 18.5789 5.41103C 16.9654 6.60474 16.2192 8.29274 16.5855 9.87163L 15.6131 10.5911L 15.6131 9.71384C 15.6131 8.31348 14.882 6.99664 13.5547 6.00039C 13.9191 4.42246 13.1728 2.73598 11.5605 1.54311C 9.86198 0.286505 7.42316 -0.25973 5.19507 0.117409C 4.96577 0.156236 4.78667 0.288743 4.73419 0.458383C 4.22436 2.10658 4.96275 3.91112 6.66122 5.16773C 8.00436 6.16144 9.81024 6.71088 11.6088 6.71088C 11.9705 6.71088 12.332 6.6885 12.6893 6.6432C 13.7838 7.46794 14.3868 8.55648 14.3868 9.7139L 14.3868 16.367L 12.4316 14.9204C 12.9697 12.7778 11.9686 10.4725 9.77231 8.84756C 7.49051 7.15932 4.21602 6.425 1.22697 6.9312C 0.997683 6.97003 0.818583 7.10253 0.766103 7.27217C 0.0820707 9.48366 1.07452 11.9062 3.35632 13.5944C 5.16114 14.9297 7.58681 15.6682 10.0013 15.6682C 10.5251 15.6682 11.0483 15.6328 11.5645 15.5618L 14.3869 17.6499L 14.3869 24.1967C 9.90245 24.284 5.79531 25.3267 3.00122 27.0929L 0.613079 27.0929C 0.274496 27.0929 9.23011e-08 27.296 9.23011e-08 27.5465C 9.23011e-08 27.797 0.274496 28.0001 0.613079 28.0001L 29.3869 28.0001C 29.7255 28.0001 30 27.797 30 27.5465C 30 27.296 29.7255 27.093 29.3869 27.093ZM 21.0947 13.3596C 22.9826 11.9629 25.6403 11.3145 28.1155 11.6292C 28.541 13.4607 27.6646 15.4268 25.7766 16.8235C 24.0849 18.0751 21.7755 18.7253 19.5328 18.6206L 25.2564 14.386C 25.4958 14.2089 25.4958 13.9216 25.2564 13.7446C 25.017 13.5674 24.6288 13.5674 24.3894 13.7446L 18.6658 17.9792C 18.5242 16.3198 19.403 14.6112 21.0947 13.3596ZM 19.446 6.05258C 20.7495 5.08814 22.5709 4.62839 24.2828 4.81575C 24.5359 6.08221 23.9147 7.42978 22.6111 8.39428C 21.513 9.20668 20.0477 9.6608 18.5896 9.67187L 22.116 7.06292C 22.3554 6.88578 22.3554 6.59857 22.116 6.42149C 21.8765 6.24435 21.4883 6.24435 21.249 6.42149L 17.7189 9.03322C 17.732 7.95279 18.346 6.86637 19.446 6.05258ZM 5.85662 0.947769C 7.56858 0.760651 9.38983 1.2201 10.6935 2.1846C 11.7915 2.997 12.4054 4.08124 12.4203 5.15987L 8.89397 2.55091C 8.65455 2.37377 8.26635 2.37377 8.027 2.55091C 7.78757 2.72805 7.78757 3.01526 8.027 3.19234L 11.5571 5.80407C 10.0968 5.79446 8.62831 5.34009 7.52836 4.5263C 6.22471 3.5618 5.60354 2.21423 5.85662 0.947769ZM 4.22338 12.953C 2.33542 11.5562 1.45905 9.5901 1.88452 7.75866C 4.35981 7.44381 7.01738 8.09231 8.90534 9.48905C 10.5969 10.7406 11.4757 12.4492 11.3342 14.1085L 5.61057 9.87393C 5.37114 9.69679 4.98294 9.69679 4.74359 9.87393C 4.50417 10.0511 4.50417 10.3383 4.74359 10.5154L 10.4672 14.7499C 8.22457 14.8547 5.91506 14.2045 4.22338 12.953ZM 15 25.0972C 18.7332 25.0972 22.3197 25.8291 24.949 27.093L 5.05103 27.093C 7.68032 25.8291 11.2668 25.0972 15 25.0972Z"/>
<path id="path4_fill" d="M 29.3868 21.3372L 26.9987 21.3372C 24.2046 19.9462 20.0975 19.125 15.613 19.0563L 15.613 16.9486L 18.4353 15.3042C 18.9516 15.3601 19.4746 15.3879 19.9986 15.3879C 22.4129 15.3879 24.8388 14.8062 26.6435 13.7547C 28.9253 12.4252 29.9177 10.5173 29.2337 8.77558C 29.1812 8.64198 29.0021 8.53763 28.7728 8.50705C 25.7837 8.10848 22.5093 8.6868 20.2275 10.0163C 18.0312 11.296 17.0301 13.1115 17.5682 14.799L 15.613 15.9383L 15.613 9.35147L 17.4544 8.27857C 17.8102 8.31396 18.1701 8.33139 18.5304 8.33139C 20.3289 8.33139 22.135 7.89863 23.478 7.11607C 25.1764 6.12647 25.9148 4.7053 25.405 3.4072C 25.3525 3.27355 25.1734 3.16924 24.9441 3.13867C 22.7163 2.8417 20.2773 3.27184 18.5788 4.26149C 16.9654 5.2016 16.2191 6.53099 16.5854 7.77446L 15.613 8.34106L 15.613 7.65019C 15.613 6.54733 14.8819 5.51024 13.5546 4.72564C 13.919 3.48293 13.1727 2.15473 11.5604 1.21529C 9.86195 0.225639 7.42313 -0.204552 5.19505 0.0924664C 4.96576 0.123045 4.78666 0.227401 4.73418 0.361002C 4.22434 1.65905 4.96273 3.08022 6.6612 4.06987C 8.00433 4.85248 9.81021 5.28519 11.6088 5.28519C 11.9704 5.28519 12.3319 5.26757 12.6892 5.23189C 13.7838 5.88142 14.3868 6.7387 14.3868 7.65024L 14.3868 12.8899L 12.4316 11.7507C 12.9697 10.0633 11.9686 8.24771 9.77228 6.96794C 7.49049 5.63836 4.216 5.06005 1.22697 5.45871C 0.99768 5.48928 0.81858 5.59364 0.7661 5.72724C 0.0820704 7.46891 1.07452 9.37681 3.35631 10.7063C 5.16112 11.758 7.58678 12.3396 10.0012 12.3396C 10.5251 12.3396 11.0482 12.3117 11.5645 12.2558L 14.3869 13.9003L 14.3869 19.0562C 9.90241 19.125 5.79529 19.9462 3.00121 21.3372L 0.613077 21.3372C 0.274495 21.3372 9.23007e-08 21.4971 9.23007e-08 21.6944C 9.23007e-08 21.8917 0.274495 22.0516 0.613077 22.0516L 29.3868 22.0516C 29.7254 22.0516 29.9999 21.8917 29.9999 21.6944C 29.9999 21.4971 29.7254 21.3372 29.3868 21.3372ZM 21.0946 10.5214C 22.9825 9.42144 25.6402 8.9108 28.1154 9.15867C 28.5409 10.601 27.6645 12.1494 25.7765 13.2495C 24.0848 14.2351 21.7754 14.7472 19.5327 14.6647L 25.2563 11.3298C 25.4957 11.1903 25.4957 10.9641 25.2563 10.8246C 25.0169 10.6851 24.6287 10.6851 24.3893 10.8246L 18.6657 14.1596C 18.5241 12.8527 19.403 11.5071 21.0946 10.5214ZM 19.4459 4.76674C 20.7495 4.00719 22.5708 3.64511 24.2827 3.79267C 24.5358 4.79008 23.9146 5.85136 22.611 6.61096C 21.5129 7.25077 20.0476 7.60842 18.5895 7.61714L 22.1159 5.56244C 22.3553 5.42294 22.3553 5.19674 22.1159 5.05728C 21.8765 4.91778 21.4883 4.91778 21.2489 5.05728L 17.7188 7.11417C 17.7319 6.26326 18.3459 5.40765 19.4459 4.76674ZM 5.8566 0.746421C 7.56855 0.599055 9.3898 0.960897 10.6934 1.72049C 11.7915 2.3603 12.4053 3.21421 12.4203 4.06368L 8.89394 2.00899C 8.65452 1.86948 8.26632 1.86948 8.02697 2.00899C 7.78754 2.14849 7.78754 2.37469 8.02697 2.51415L 11.5571 4.57103C 10.0968 4.56346 8.62828 4.20562 7.52833 3.56471C 6.22469 2.80512 5.60352 1.74383 5.8566 0.746421ZM 4.22336 10.2012C 2.33541 9.10113 1.45904 7.55274 1.88452 6.11037C 4.35979 5.86241 7.01736 6.37315 8.9053 7.47315C 10.5969 8.4588 11.4756 9.80443 11.3342 11.1112L 5.61055 7.77627C 5.37112 7.63676 4.98292 7.63676 4.74358 7.77627C 4.50415 7.91577 4.50415 8.14197 4.74358 8.28143L 10.4672 11.6164C 8.22454 11.6989 5.91504 11.1868 4.22336 10.2012ZM 14.9999 19.7655C 18.7332 19.7655 22.3196 20.3419 24.9489 21.3372L 5.05101 21.3372C 7.6803 20.3418 11.2667 19.7655 14.9999 19.7655Z"/>
<path id="path5_fill" fill-rule="evenodd" d="M 11 15.75C 17.0751 15.75 22 12.2242 22 7.875C 22 3.52576 17.0751 0 11 0C 4.92487 0 0 3.52576 0 7.875C 0 12.2242 4.92487 15.75 11 15.75Z"/>
<path id="path6_fill" fill-rule="evenodd" d="M 11 15.4C 17.0751 15.4 22 11.9526 22 7.7C 22 3.44741 17.0751 0 11 0C 4.92487 0 0 3.44741 0 7.7C 0 11.9526 4.92487 15.4 11 15.4Z"/>
<path id="path7_fill" fill-rule="evenodd" d="M 10.6723 21.8262L 4.3993 26.3227L 5.59734 16.7991L 0.522342 10.0544L 7.53582 8.6649L 10.6723 0L 13.8089 8.6649L 20.8223 10.0544L 15.7473 16.7991L 16.9454 26.3227L 10.6723 21.8262Z"/>
<path id="path8_fill" d="M 17.0975 29.8186C 22.4448 30.7977 27.2926 27.7331 29.5117 22.5705C 30.2107 20.9921 19.6485 17.1757 19.775 15.2526C 19.9288 12.9398 30.6372 12.705 29.9701 10.6045C 28.2841 5.26462 24.1643 1.03118 19.1292 0.0920809C 12.1766 -1.20418 1.62677e-07 11.6135 1.62677e-07 11.6135C 1.62677e-07 11.6135 10.1312 28.5273 17.0975 29.8186Z"/>
<path id="path9_fill" d="M 22.378 34.1255C 29.3768 35.246 35.7219 31.7388 38.6263 25.8306C 39.5412 24.0241 25.7169 19.6565 25.8824 17.4556C 26.0837 14.8088 40.0994 14.5401 39.2263 12.1362C 37.0196 6.02503 31.6274 1.18012 25.0372 0.105381C 15.9373 -1.37811 2.12919e-07 13.291 2.12919e-07 13.291C 2.12919e-07 13.291 13.2601 32.6478 22.378 34.1255Z"/>
<path id="path10_fill" d="M 72.1174 114.979C 60.2778 114.778 54.2168 109.13 51.1353 99.3862C 48.5506 91.1847 47.3012 82.5427 45.379 74.1199C 43.7697 67.0202 45.7328 62.7797 53.2619 59.7395C 65.944 54.6344 75.882 45.8698 83.4254 33.0979C 70.8987 41.1266 44.2625 60.8474 43.8474 55.6799C 43.8474 37.9477 54.0226 17.2537 59.5253 1.22723e-07C 30.4537 39.1662 23.2865 65.2367 44.3259 110.891C 39.5246 109.735 37.2896 111.8 36.0852 110.755C 24.5829 100.77 12.8107 112.749 1.00175 121.007C -0.482808 122.041 -0.0227152 129.018 0.51508 129.128C 12.1175 131.782 23.7752 134.811 35.5781 135.762C 47.9228 136.765 60.5068 136.546 72.8045 135.211C 83.0349 134.111 92.9851 130.602 104.588 127.807C 94.9032 114.283 82.769 115.136 72.1174 114.979Z"/>
<path id="path11_fill" d="M 10.1495 2.74132C 3.69799 6.44701 -0.121774 12.4288 0.00296131 17.6968C 0.0315892 19.3214 13.7177 13.2532 14.5439 14.6325C 15.5377 16.3054 3.75321 25.1987 5.54654 26.0532C 10.1352 28.2469 16.8525 27.7181 22.9277 24.2496C 31.3382 19.4139 38.4215 0.931702 38.4215 0.931702C 38.4215 0.931702 18.5743 -2.08634 10.1495 2.74132Z"/>
<path id="path12_fill" d="M 4.15962 19.5211C 7.59701 21.1558 12.6273 20.7597 17.1751 18.1619C 23.4732 14.5466 28.7775 0.701056 28.7775 0.701056C 28.7775 0.701056 13.9135 -1.56298 7.60314 2.04621C 2.77525 4.83704 -0.0957165 9.30881 0.00243613 13.2558C 0.031064 14.4763 10.2758 9.92609 10.8913 10.9676C 11.6356 12.2203 2.80184 18.8736 4.15962 19.5211Z"/>
<path id="path13_fill" d="M 5.73948 1.54876C 2.08738 3.65395 -0.0678869 7.03593 0.00163789 10.0158C 0.0159518 10.9407 7.75364 7.50844 8.22396 8.29261C 8.7822 9.23562 2.10169 14.2724 3.13025 14.7529C 5.73334 15.9915 9.53266 15.696 12.97 13.7235C 17.7284 10.995 21.7384 0.533367 21.7384 0.533367C 21.7384 0.533367 10.5121 -1.18577 5.73948 1.54876Z"/>
<path id="path14_fill" d="M 0.0115709 2.9519C -0.284932 3.48875 5.21774 4.00349 5.23205 4.59664C 5.23205 5.31245 -0.182688 6.03027 0.236505 6.62945C 1.28756 8.15355 3.53893 9.18905 6.1277 9.17699C 9.71232 9.13879 15.3929 4.5122 15.3929 4.5122C 15.3929 4.5122 9.62644 -0.0359772 6.04182 0.000215169C 3.28741 0.0283648 0.948111 1.26292 0.0115709 2.9519Z"/>
<path id="path15_fill" d="M 5.84155 0.0875073C 2.91742 0.628382 0.678322 2.35556 0.00556763 4.34413C -0.207096 4.96342 5.7434 4.49292 5.86814 5.12629C 6.00719 5.87226 0.381823 7.64769 0.935977 8.21269C 2.34897 9.63023 4.94591 10.332 7.68192 9.82728C 11.4812 9.12756 16.6527 3.15582 16.6527 3.15582C 16.6527 3.15582 9.6511 -0.616233 5.84155 0.0875073Z"/>
<path id="path16_fill" d="M 3.13044 14.7538C 5.72535 16.0024 9.53081 15.7008 12.9723 13.7283C 17.7306 10.9938 21.7324 0.530187 21.7324 0.530187C 21.7324 0.530187 10.5103 -1.18292 5.73762 1.54961C 2.08348 3.65882 -0.0717904 7.03878 0.0018241 10.0186C 0.016138 10.9395 7.7518 7.50928 8.2262 8.29144C 8.78854 9.23847 2.11416 14.2692 3.13044 14.7538Z"/>
<path id="path17_fill" d="M 0.382793 15.6331C 0.691565 16.4997 6.96107 10.8718 7.66246 11.485C 8.50084 12.2029 3.72817 19.0231 4.84875 19.1639C 7.71767 19.566 11.245 18.1284 13.8911 15.1968C 17.5575 11.1613 18.0748 -1.44199e-06 18.0748 -1.44199e-06C 18.0748 -1.44199e-06 6.85065 1.76941 3.18424 5.81893C 0.368484 8.94153 -0.623272 12.8161 0.382793 15.6331Z"/>
<path id="path18_fill" d="M 7.66663 11.485C 8.4907 12.2029 3.73235 19.0231 4.85292 19.1639C 7.71366 19.566 11.2492 18.1284 13.8952 15.1968C 17.5473 11.1613 18.0647 -3.37487e-07 18.0647 -3.37487e-07C 18.0647 -3.37487e-07 6.8405 1.77544 3.17409 5.82496C 0.374694 8.94152 -0.617048 12.8222 0.374703 15.6411C 0.68143 16.5017 6.96525 10.8738 7.66663 11.485Z"/>
<path id="path19_fill" d="M 7.66133 11.483C 8.49972 12.2089 3.72705 19.0211 4.84149 19.1759C 7.70837 19.572 11.2439 18.1263 13.8899 15.2088C 17.5563 11.1674 18.0737 -8.28378e-07 18.0737 -8.28378e-07C 18.0737 -8.28378e-07 6.84953 1.77544 3.18312 5.82496C 0.363276 8.93549 -0.622339 12.8161 0.383726 15.6331C 0.692497 16.4917 6.96199 10.8698 7.66133 11.483Z"/>
<path id="path20_fill" d="M 6.67219 31.2984C 7.80708 31.8473 8.46348 20.6658 9.69652 20.6055C 11.1934 20.5271 13.1155 31.4713 14.3465 30.5665C 17.4547 28.3125 19.4688 23.6678 19.203 18.4279C 18.882 11.1814 8.73136 0 8.73136 0C 8.73136 0 -0.343681 12.0561 0.0100772 19.3287C 0.279997 24.9024 3.04055 29.531 6.67219 31.2984Z"/>
<path id="path21_fill" d="M 7.08402 23.1169C 8.00829 23.338 6.64643 15.0942 7.54207 14.8529C 8.60335 14.5634 11.8117 22.2161 12.5335 21.3796C 14.4536 19.2222 15.1366 15.5446 14.1183 11.7665C 12.6767 6.54076 3.45442 1.22723e-07 3.45442 1.22723e-07C 3.45442 1.22723e-07 -1.16694 10.2123 0.280814 15.4441C 1.38503 19.4655 4.14557 22.4031 7.08402 23.1169Z"/>
<path id="path22_fill" d="M 11.2569 13.7978C 15.2627 15.143 19.2768 14.5297 21.5322 12.5311C 22.2213 11.9078 14.5102 8.40717 14.8108 7.54257C 15.1646 6.50707 23.4053 8.17593 23.0965 7.10625C 22.3665 4.3496 19.6428 1.7156 15.8864 0.45892C 10.6618 -1.30244 -1.40408e-06 2.57416 -1.40408e-06 2.57416C -1.40408e-06 2.57416 6.03843 12.0505 11.2569 13.7978Z"/>
<path id="path23_fill" d="M 11.2528 13.7938C 15.2586 15.1329 19.2686 14.5257 21.5281 12.525C 22.207 11.9057 14.5123 8.40311 14.8067 7.53047C 15.1564 6.49497 23.3971 8.17792 23.1027 7.10019C 22.3502 4.35158 19.6346 1.72361 15.8885 0.456877C 10.6639 -1.29845 -3.3542e-07 2.57011 -3.3542e-07 2.57011C -3.3542e-07 2.57011 6.02207 12.0445 11.2528 13.7938Z"/>
<path id="path24_fill" d="M 23.665 9.56118C 24.1169 8.74484 15.6635 7.9466 15.6635 7.0257C 15.6349 5.93189 23.9901 4.83406 23.344 3.93327C 21.7163 1.58077 18.2646 -0.0277848 14.2894 0.000364784C 8.77239 0.0345465 7.64446e-07 7.15439 7.64446e-07 7.15439C 7.64446e-07 7.15439 8.87055 14.1375 14.3875 14.0973C 18.6306 14.0531 22.2132 12.1831 23.665 9.56118Z"/>
<path id="path25_fill" d="M 23.6691 9.55314C 24.121 8.75289 15.6635 7.94258 15.6513 7.03174C 15.6369 5.93591 23.9779 4.84009 23.3337 3.9393C 21.706 1.57272 18.2666 -0.027783 14.2894 0.000366627C 8.77239 0.0385697 2.02812e-07 7.15439 2.02812e-07 7.15439C 2.02812e-07 7.15439 8.87259 14.1395 14.3916 14.0872C 18.6183 14.0571 22.2152 12.1751 23.6691 9.55314Z"/>
<path id="path26_fill" d="M 11.2341 20.6799C 12.1707 20.6015 8.16687 13.2464 8.93778 12.7256C 9.84774 12.0963 15.4036 18.3274 15.8105 17.2919C 16.9168 14.6499 16.3422 10.9422 14.1194 7.70093C 11.0235 3.21509 0.151072 4.6021e-07 0.151072 4.6021e-07C 0.151072 4.6021e-07 -0.842724 11.1271 2.26749 15.6069C 4.6252 19.0593 8.20777 20.9634 11.2341 20.6799Z"/>
<path id="path27_fill" d="M 11.2303 20.6799C 12.1709 20.6015 8.16507 13.2464 8.93802 12.7256C 9.84798 12.0963 15.3997 18.3274 15.8087 17.2919C 16.8966 14.6499 16.3404 10.9422 14.1197 7.70093C 11.0238 3.21509 0.151312 4.6021e-07 0.151312 4.6021e-07C 0.151312 4.6021e-07 -0.842481 11.1271 2.26364 15.6069C 4.62544 19.0593 8.20801 20.9634 11.2303 20.6799Z"/>
<path id="path28_fill" d="M 0.309015 16.6304C -0.715453 22.0452 0.883614 27.1141 3.97747 29.6154C 4.93241 30.3895 8.11624 19.7932 9.3186 20.0104C 10.7602 20.2778 10.1304 31.2079 11.5086 30.6167C 15.0156 29.1308 17.9969 25.1255 18.9682 20.0345C 20.3178 12.9951 13.1036 1.68744e-06 13.1036 1.68744e-06C 13.1036 1.68744e-06 1.65043 9.5769 0.309015 16.6304Z"/>
<path id="path29_fill" d="M 3.37178 20.5955C 6.63331 25.0773 11.4469 27.4801 15.4262 27.0216C 16.6428 26.8889 11.0972 17.2617 12.1094 16.566C 13.2954 15.7276 20.8573 23.7663 21.3889 22.3769C 22.7365 18.8663 21.8613 13.9783 18.8145 9.75786C 14.5878 3.92687 0.0918471 -1.87152e-06 0.0918471 -1.87152e-06C 0.0918471 -1.87152e-06 -0.861051 14.7524 3.37178 20.5955Z"/>
<path id="path30_fill" d="M 22.9554 24.0053C 30.1349 24.7935 36.6437 22.3264 39.623 18.1703C 40.5616 16.8996 26.3806 13.8272 26.5503 12.279C 26.7568 10.4171 41.1341 10.2281 40.2385 8.53711C 37.9748 4.23826 32.4435 0.830148 25.6833 0.0741293C 16.3485 -0.969417 2.18413e-07 9.34943 2.18413e-07 9.34943C 2.18413e-07 9.34943 13.6023 22.9658 22.9554 24.0053Z"/>
<path id="path31_fill" d="M 27.3498 5.80118C 25.8121 2.87362 22.0598 0.569384 17.4691 0.0506271C 11.1117 -0.661156 1.90332e-06 6.3682 1.90332e-06 6.3682C 1.90332e-06 6.3682 9.23453 15.6174 15.6063 16.3171C 20.4791 16.862 24.8981 15.1871 26.9286 12.352C 27.5584 11.4914 17.9292 9.39429 18.0417 8.34873C 18.1746 7.09004 27.951 6.95733 27.3498 5.80118Z"/>
<path id="path32_fill" d="M 21.608 27.0929L 19.852 27.0929C 17.7976 25.3266 14.7776 24.284 11.4802 24.1967L 11.4802 21.5205L 13.5554 19.4324C 13.935 19.5034 14.3196 19.5388 14.7049 19.5388C 16.4801 19.5388 18.2639 18.8001 19.5909 17.465C 21.2687 15.7768 21.9984 13.3543 21.4955 11.1428C 21.4569 10.9731 21.3252 10.8406 21.1566 10.8018C 18.9587 10.2957 16.551 11.03 14.8732 12.7182C 13.2583 14.3431 12.5222 16.6484 12.9179 18.791L 11.4802 20.2376L 11.4802 11.874L 12.8341 10.5117C 13.0958 10.5566 13.3604 10.5788 13.6253 10.5788C 14.9478 10.5788 16.2758 10.0293 17.2633 9.03562C 18.5122 7.77907 19.0551 5.97454 18.6802 4.32629C 18.6416 4.15659 18.5099 4.02414 18.3413 3.98531C 16.7032 3.60824 14.9098 4.15441 13.661 5.41101C 12.4746 6.60472 11.9259 8.29271 12.1952 9.8716L 11.4802 10.591L 11.4802 9.71381C 11.4802 8.31345 10.9426 6.99661 9.96668 6.00037C 10.2346 4.42245 9.68587 2.73597 8.50034 1.54311C 7.25146 0.286504 5.45821 -0.259729 3.8199 0.117409C 3.65131 0.156236 3.51961 0.288742 3.48103 0.458382C 3.10615 2.10658 3.64908 3.91111 4.89796 5.16771C 5.88556 6.16142 7.21342 6.71086 8.53592 6.71086C 8.80183 6.71086 9.06762 6.68848 9.33034 6.64318C 10.1352 7.46792 10.5786 8.55645 10.5786 9.71387L 10.5786 16.367L 9.14089 14.9204C 9.53656 12.7778 8.80045 10.4725 7.18553 8.84753C 5.50773 7.1593 3.10002 6.42498 0.902188 6.93118C 0.733591 6.97 0.601899 7.10251 0.563311 7.27215C 0.0603461 9.48364 0.790091 11.9062 2.46788 13.5944C 3.79496 14.9296 5.57854 15.6681 7.35388 15.6681C 7.73904 15.6681 8.12372 15.6328 8.50335 15.5618L 10.5786 17.6499L 10.5786 24.1966C 7.28121 24.2839 4.26126 25.3266 2.20678 27.0928L 0.450793 27.0928C 0.201835 27.0928 6.78685e-08 27.2959 6.78685e-08 27.5464C 6.78685e-08 27.7969 0.201835 28 0.450793 28L 21.608 28C 21.857 28 22.0588 27.7969 22.0588 27.5464C 22.0588 27.2959 21.857 27.0929 21.608 27.0929ZM 15.5108 13.3596C 16.899 11.9629 18.8531 11.3145 20.6731 11.6292C 20.9861 13.4606 20.3416 15.4267 18.9534 16.8235C 17.7095 18.075 16.0114 18.7252 14.3623 18.6205L 18.5709 14.3859C 18.7469 14.2088 18.7469 13.9216 18.5709 13.7445C 18.3948 13.5674 18.1094 13.5674 17.9334 13.7445L 13.7249 17.9791C 13.6208 16.3197 14.2669 14.6111 15.5108 13.3596ZM 14.2985 6.05256C 15.257 5.08812 16.5962 4.62837 17.855 4.81573C 18.0411 6.08219 17.5844 7.42976 16.6258 8.39425C 15.8184 9.20665 14.7409 9.66077 13.6688 9.67184L 16.2617 7.0629C 16.4378 6.88576 16.4378 6.59855 16.2617 6.42147C 16.0857 6.24433 15.8002 6.24433 15.6243 6.42147L 13.0286 9.0332C 13.0382 7.95277 13.4897 6.86635 14.2985 6.05256ZM 4.30634 0.947766C 5.56513 0.760649 6.90429 1.2201 7.86286 2.18459C 8.67026 2.99699 9.12159 4.08123 9.13259 5.15985L 6.53969 2.55091C 6.36364 2.37377 6.0782 2.37377 5.90221 2.55091C 5.72616 2.72805 5.72616 3.01525 5.90221 3.19233L 8.49788 5.80406C 7.42415 5.79444 6.34435 5.34007 5.53556 4.52629C 4.577 3.56179 4.12025 2.21423 4.30634 0.947766ZM 3.10543 12.9529C 1.71722 11.5561 1.07283 9.59008 1.38568 7.75863C 3.20574 7.44379 5.15984 8.09229 6.54804 9.48902C 7.79187 10.7405 8.43801 12.4492 8.33397 14.1085L 4.12542 9.8739C 3.94937 9.69676 3.66393 9.69676 3.48794 9.8739C 3.31189 10.051 3.31189 10.3382 3.48794 10.5153L 7.69649 14.7499C 6.04748 14.8547 4.34931 14.2045 3.10543 12.9529ZM 11.0294 25.0971C 13.7744 25.0971 16.4115 25.829 18.3448 27.0929L 3.714 27.0929C 5.6473 25.829 8.28438 25.0971 11.0294 25.0971Z"/>
</defs>
</svg>
